<mxfile host="app.diagrams.net" agent="Mozilla/5.0 (Windows NT 10.0; Win64; x64) AppleWebKit/537.36 (KHTML, like Gecko) Chrome/137.0.0.0 Safari/537.36" version="27.1.4">
  <diagram name="Página-1" id="oRwEuBBHJ817DWqLubmv">
    <mxGraphModel dx="1426" dy="1151" grid="1" gridSize="10" guides="1" tooltips="1" connect="1" arrows="1" fold="1" page="0" pageScale="1" pageWidth="827" pageHeight="1169" background="none" math="0" shadow="0">
      <root>
        <mxCell id="0" />
        <mxCell id="1" parent="0" />
        <mxCell id="pcuB9orH_UUmlSS86W1v-1" value="" style="rounded=0;whiteSpace=wrap;html=1;" parent="1" vertex="1">
          <mxGeometry x="110" y="160" width="200" height="30" as="geometry" />
        </mxCell>
        <mxCell id="pcuB9orH_UUmlSS86W1v-2" value="" style="rounded=0;whiteSpace=wrap;html=1;" parent="1" vertex="1">
          <mxGeometry x="110" y="190" width="40" height="240" as="geometry" />
        </mxCell>
        <mxCell id="pcuB9orH_UUmlSS86W1v-3" value="" style="rounded=0;whiteSpace=wrap;html=1;" parent="1" vertex="1">
          <mxGeometry x="150" y="190" width="160" height="240" as="geometry" />
        </mxCell>
        <mxCell id="pcuB9orH_UUmlSS86W1v-4" value="nombre VARCHAR" style="text;html=1;align=left;verticalAlign=middle;whiteSpace=wrap;rounded=0;" parent="1" vertex="1">
          <mxGeometry x="150" y="260" width="120" height="10" as="geometry" />
        </mxCell>
        <mxCell id="pcuB9orH_UUmlSS86W1v-5" value="apellido VARCHAR" style="text;html=1;align=left;verticalAlign=middle;whiteSpace=wrap;rounded=0;" parent="1" vertex="1">
          <mxGeometry x="150" y="230" width="120" height="10" as="geometry" />
        </mxCell>
        <mxCell id="pcuB9orH_UUmlSS86W1v-6" value="email VARCHAR" style="text;html=1;align=left;verticalAlign=middle;whiteSpace=wrap;rounded=0;" parent="1" vertex="1">
          <mxGeometry x="150" y="200" width="110" height="10" as="geometry" />
        </mxCell>
        <mxCell id="pcuB9orH_UUmlSS86W1v-7" value="contraseña VARCHAR" style="text;html=1;align=left;verticalAlign=middle;whiteSpace=wrap;rounded=0;" parent="1" vertex="1">
          <mxGeometry x="150" y="290" width="140" height="10" as="geometry" />
        </mxCell>
        <mxCell id="pcuB9orH_UUmlSS86W1v-8" value="telefono VARCHAR" style="text;html=1;align=left;verticalAlign=middle;whiteSpace=wrap;rounded=0;" parent="1" vertex="1">
          <mxGeometry x="150" y="320" width="130" height="10" as="geometry" />
        </mxCell>
        <mxCell id="pcuB9orH_UUmlSS86W1v-9" value="rol ENUM" style="text;html=1;align=left;verticalAlign=middle;whiteSpace=wrap;rounded=0;" parent="1" vertex="1">
          <mxGeometry x="150" y="350" width="110" height="10" as="geometry" />
        </mxCell>
        <mxCell id="pcuB9orH_UUmlSS86W1v-10" value="fecha_nacimiento DATE" style="text;html=1;align=left;verticalAlign=middle;whiteSpace=wrap;rounded=0;" parent="1" vertex="1">
          <mxGeometry x="150" y="380" width="150" height="10" as="geometry" />
        </mxCell>
        <mxCell id="pcuB9orH_UUmlSS86W1v-11" value="fecha_creacion DATETIME" style="text;html=1;align=left;verticalAlign=middle;whiteSpace=wrap;rounded=0;" parent="1" vertex="1">
          <mxGeometry x="150" y="410" width="150" height="10" as="geometry" />
        </mxCell>
        <mxCell id="pcuB9orH_UUmlSS86W1v-12" value="usuarios" style="text;html=1;align=center;verticalAlign=middle;whiteSpace=wrap;rounded=0;fontSize=15;" parent="1" vertex="1">
          <mxGeometry x="190" y="170" width="40" height="10" as="geometry" />
        </mxCell>
        <mxCell id="pcuB9orH_UUmlSS86W1v-13" value="PK" style="text;html=1;align=left;verticalAlign=middle;whiteSpace=wrap;rounded=0;" parent="1" vertex="1">
          <mxGeometry x="120" y="200" width="20" height="10" as="geometry" />
        </mxCell>
        <mxCell id="pcuB9orH_UUmlSS86W1v-15" value="" style="rounded=0;whiteSpace=wrap;html=1;" parent="1" vertex="1">
          <mxGeometry x="410" y="310" width="210" height="30" as="geometry" />
        </mxCell>
        <mxCell id="pcuB9orH_UUmlSS86W1v-16" value="" style="rounded=0;whiteSpace=wrap;html=1;" parent="1" vertex="1">
          <mxGeometry x="410" y="340" width="40" height="60" as="geometry" />
        </mxCell>
        <mxCell id="pcuB9orH_UUmlSS86W1v-17" value="" style="rounded=0;whiteSpace=wrap;html=1;" parent="1" vertex="1">
          <mxGeometry x="450" y="340" width="170" height="60" as="geometry" />
        </mxCell>
        <mxCell id="pcuB9orH_UUmlSS86W1v-18" value="id_domicilio INT" style="text;html=1;align=left;verticalAlign=middle;whiteSpace=wrap;rounded=0;" parent="1" vertex="1">
          <mxGeometry x="450" y="350" width="170" height="10" as="geometry" />
        </mxCell>
        <mxCell id="pcuB9orH_UUmlSS86W1v-19" value="email_usuario VARCHAR" style="text;html=1;align=left;verticalAlign=middle;whiteSpace=wrap;rounded=0;" parent="1" vertex="1">
          <mxGeometry x="450" y="380" width="140" height="10" as="geometry" />
        </mxCell>
        <mxCell id="pcuB9orH_UUmlSS86W1v-21" value="usuarios_domicilios" style="text;html=1;align=center;verticalAlign=middle;whiteSpace=wrap;rounded=0;fontSize=15;" parent="1" vertex="1">
          <mxGeometry x="440" y="320" width="150" height="10" as="geometry" />
        </mxCell>
        <mxCell id="pcuB9orH_UUmlSS86W1v-22" value="FK" style="text;html=1;align=left;verticalAlign=middle;whiteSpace=wrap;rounded=0;" parent="1" vertex="1">
          <mxGeometry x="420" y="350" width="20" height="10" as="geometry" />
        </mxCell>
        <mxCell id="pcuB9orH_UUmlSS86W1v-23" value="FK" style="text;html=1;align=left;verticalAlign=middle;whiteSpace=wrap;rounded=0;" parent="1" vertex="1">
          <mxGeometry x="420" y="380" width="20" height="10" as="geometry" />
        </mxCell>
        <mxCell id="pcuB9orH_UUmlSS86W1v-24" value="" style="rounded=0;whiteSpace=wrap;html=1;" parent="1" vertex="1">
          <mxGeometry x="745" y="260" width="160" height="30" as="geometry" />
        </mxCell>
        <mxCell id="pcuB9orH_UUmlSS86W1v-25" value="" style="rounded=0;whiteSpace=wrap;html=1;" parent="1" vertex="1">
          <mxGeometry x="745" y="290" width="40" height="180" as="geometry" />
        </mxCell>
        <mxCell id="pcuB9orH_UUmlSS86W1v-26" value="" style="rounded=0;whiteSpace=wrap;html=1;" parent="1" vertex="1">
          <mxGeometry x="785" y="290" width="120" height="180" as="geometry" />
        </mxCell>
        <mxCell id="pcuB9orH_UUmlSS86W1v-27" value="id_domicilio INT" style="text;html=1;align=left;verticalAlign=middle;whiteSpace=wrap;rounded=0;" parent="1" vertex="1">
          <mxGeometry x="785" y="300" width="100" height="10" as="geometry" />
        </mxCell>
        <mxCell id="pcuB9orH_UUmlSS86W1v-28" value="calle VARCHAR" style="text;html=1;align=left;verticalAlign=middle;whiteSpace=wrap;rounded=0;" parent="1" vertex="1">
          <mxGeometry x="785" y="330" width="100" height="10" as="geometry" />
        </mxCell>
        <mxCell id="pcuB9orH_UUmlSS86W1v-29" value="numero VARCHAR" style="text;html=1;align=left;verticalAlign=middle;whiteSpace=wrap;rounded=0;" parent="1" vertex="1">
          <mxGeometry x="785" y="360" width="110" height="10" as="geometry" />
        </mxCell>
        <mxCell id="pcuB9orH_UUmlSS86W1v-30" value="barrio VARCHAR" style="text;html=1;align=left;verticalAlign=middle;whiteSpace=wrap;rounded=0;" parent="1" vertex="1">
          <mxGeometry x="785" y="390" width="100" height="10" as="geometry" />
        </mxCell>
        <mxCell id="pcuB9orH_UUmlSS86W1v-31" value="ciudad VARCHAR" style="text;html=1;align=left;verticalAlign=middle;whiteSpace=wrap;rounded=0;" parent="1" vertex="1">
          <mxGeometry x="785" y="420" width="110" height="10" as="geometry" />
        </mxCell>
        <mxCell id="pcuB9orH_UUmlSS86W1v-32" value="pais VARCHAR" style="text;html=1;align=left;verticalAlign=middle;whiteSpace=wrap;rounded=0;" parent="1" vertex="1">
          <mxGeometry x="785" y="450" width="110" height="10" as="geometry" />
        </mxCell>
        <mxCell id="pcuB9orH_UUmlSS86W1v-33" value="domicilios" style="text;html=1;align=center;verticalAlign=middle;whiteSpace=wrap;rounded=0;fontSize=15;" parent="1" vertex="1">
          <mxGeometry x="780" y="270" width="90" height="10" as="geometry" />
        </mxCell>
        <mxCell id="pcuB9orH_UUmlSS86W1v-34" value="PK" style="text;html=1;align=left;verticalAlign=middle;whiteSpace=wrap;rounded=0;" parent="1" vertex="1">
          <mxGeometry x="755" y="300" width="20" height="10" as="geometry" />
        </mxCell>
        <mxCell id="pcuB9orH_UUmlSS86W1v-36" value="" style="rounded=0;whiteSpace=wrap;html=1;" parent="1" vertex="1">
          <mxGeometry x="90" y="-240" width="220" height="30" as="geometry" />
        </mxCell>
        <mxCell id="pcuB9orH_UUmlSS86W1v-37" value="" style="rounded=0;whiteSpace=wrap;html=1;" parent="1" vertex="1">
          <mxGeometry x="90" y="-210" width="40" height="220" as="geometry" />
        </mxCell>
        <mxCell id="pcuB9orH_UUmlSS86W1v-38" value="" style="rounded=0;whiteSpace=wrap;html=1;" parent="1" vertex="1">
          <mxGeometry x="130" y="-210" width="180" height="220" as="geometry" />
        </mxCell>
        <mxCell id="pcuB9orH_UUmlSS86W1v-39" value="id_dispositivo INT" style="text;html=1;align=left;verticalAlign=middle;whiteSpace=wrap;rounded=0;" parent="1" vertex="1">
          <mxGeometry x="130" y="-200" width="160" height="10" as="geometry" />
        </mxCell>
        <mxCell id="pcuB9orH_UUmlSS86W1v-40" value="tipo_dispositivo VARCHAR" style="text;html=1;align=left;verticalAlign=middle;whiteSpace=wrap;rounded=0;" parent="1" vertex="1">
          <mxGeometry x="130" y="-45" width="170" height="10" as="geometry" />
        </mxCell>
        <mxCell id="pcuB9orH_UUmlSS86W1v-41" value="nombre_dispositivo VARCHAR" style="text;html=1;align=left;verticalAlign=middle;whiteSpace=wrap;rounded=0;" parent="1" vertex="1">
          <mxGeometry x="130" y="-140" width="170" height="10" as="geometry" />
        </mxCell>
        <mxCell id="pcuB9orH_UUmlSS86W1v-42" value="estado BOOLEAN" style="text;html=1;align=left;verticalAlign=middle;whiteSpace=wrap;rounded=0;" parent="1" vertex="1">
          <mxGeometry x="130" y="-110" width="170" height="10" as="geometry" />
        </mxCell>
        <mxCell id="pcuB9orH_UUmlSS86W1v-43" value="descripcion VARCHAR" style="text;html=1;align=left;verticalAlign=middle;whiteSpace=wrap;rounded=0;" parent="1" vertex="1">
          <mxGeometry x="130" y="-80" width="170" height="10" as="geometry" />
        </mxCell>
        <mxCell id="pcuB9orH_UUmlSS86W1v-45" value="id_ubicacion_casa INT" style="text;html=1;align=left;verticalAlign=middle;whiteSpace=wrap;rounded=0;" parent="1" vertex="1">
          <mxGeometry x="130" y="-170" width="130" height="10" as="geometry" />
        </mxCell>
        <mxCell id="pcuB9orH_UUmlSS86W1v-47" value="dispositivos" style="text;html=1;align=center;verticalAlign=middle;whiteSpace=wrap;rounded=0;fontSize=15;" parent="1" vertex="1">
          <mxGeometry x="140" y="-230" width="120" height="10" as="geometry" />
        </mxCell>
        <mxCell id="pcuB9orH_UUmlSS86W1v-48" value="PK" style="text;html=1;align=left;verticalAlign=middle;whiteSpace=wrap;rounded=0;" parent="1" vertex="1">
          <mxGeometry x="100" y="-200" width="20" height="10" as="geometry" />
        </mxCell>
        <mxCell id="pcuB9orH_UUmlSS86W1v-49" value="FK" style="text;html=1;align=left;verticalAlign=middle;whiteSpace=wrap;rounded=0;" parent="1" vertex="1">
          <mxGeometry x="100" y="-170" width="20" height="10" as="geometry" />
        </mxCell>
        <mxCell id="pcuB9orH_UUmlSS86W1v-50" value="fecha_creacion DATETIME" style="text;html=1;align=left;verticalAlign=middle;whiteSpace=wrap;rounded=0;" parent="1" vertex="1">
          <mxGeometry x="130" y="-10" width="170" height="10" as="geometry" />
        </mxCell>
        <mxCell id="pcuB9orH_UUmlSS86W1v-51" value="" style="rounded=0;whiteSpace=wrap;html=1;" parent="1" vertex="1">
          <mxGeometry x="405" y="-260" width="220" height="30" as="geometry" />
        </mxCell>
        <mxCell id="pcuB9orH_UUmlSS86W1v-52" value="" style="rounded=0;whiteSpace=wrap;html=1;" parent="1" vertex="1">
          <mxGeometry x="405" y="-230" width="40" height="65" as="geometry" />
        </mxCell>
        <mxCell id="pcuB9orH_UUmlSS86W1v-53" value="" style="rounded=0;whiteSpace=wrap;html=1;" parent="1" vertex="1">
          <mxGeometry x="445" y="-230" width="180" height="65" as="geometry" />
        </mxCell>
        <mxCell id="pcuB9orH_UUmlSS86W1v-55" value="id_automatizacion INT" style="text;html=1;align=left;verticalAlign=middle;whiteSpace=wrap;rounded=0;" parent="1" vertex="1">
          <mxGeometry x="445" y="-220" width="150" height="10" as="geometry" />
        </mxCell>
        <mxCell id="pcuB9orH_UUmlSS86W1v-56" value="id_dispositivo INT" style="text;html=1;align=left;verticalAlign=middle;whiteSpace=wrap;rounded=0;" parent="1" vertex="1">
          <mxGeometry x="445" y="-190" width="180" height="10" as="geometry" />
        </mxCell>
        <mxCell id="pcuB9orH_UUmlSS86W1v-57" value="automatizaciones_dispositivos" style="text;html=1;align=center;verticalAlign=middle;whiteSpace=wrap;rounded=0;fontSize=15;" parent="1" vertex="1">
          <mxGeometry x="440" y="-250" width="150" height="10" as="geometry" />
        </mxCell>
        <mxCell id="pcuB9orH_UUmlSS86W1v-58" value="FK" style="text;html=1;align=left;verticalAlign=middle;whiteSpace=wrap;rounded=0;" parent="1" vertex="1">
          <mxGeometry x="415" y="-220" width="20" height="10" as="geometry" />
        </mxCell>
        <mxCell id="pcuB9orH_UUmlSS86W1v-59" value="FK" style="text;html=1;align=left;verticalAlign=middle;whiteSpace=wrap;rounded=0;" parent="1" vertex="1">
          <mxGeometry x="415" y="-190" width="20" height="10" as="geometry" />
        </mxCell>
        <mxCell id="pcuB9orH_UUmlSS86W1v-60" value="" style="rounded=0;whiteSpace=wrap;html=1;" parent="1" vertex="1">
          <mxGeometry x="705" y="-305" width="260" height="30" as="geometry" />
        </mxCell>
        <mxCell id="pcuB9orH_UUmlSS86W1v-61" value="" style="rounded=0;whiteSpace=wrap;html=1;" parent="1" vertex="1">
          <mxGeometry x="705" y="-275" width="40" height="240" as="geometry" />
        </mxCell>
        <mxCell id="pcuB9orH_UUmlSS86W1v-62" value="" style="rounded=0;whiteSpace=wrap;html=1;" parent="1" vertex="1">
          <mxGeometry x="745" y="-275" width="220" height="240" as="geometry" />
        </mxCell>
        <mxCell id="pcuB9orH_UUmlSS86W1v-63" value="id_automatizacion INT" style="text;html=1;align=left;verticalAlign=middle;whiteSpace=wrap;rounded=0;" parent="1" vertex="1">
          <mxGeometry x="745" y="-265" width="160" height="10" as="geometry" />
        </mxCell>
        <mxCell id="pcuB9orH_UUmlSS86W1v-64" value="descripcion_automatizacion VARCHAR" style="text;html=1;align=left;verticalAlign=middle;whiteSpace=wrap;rounded=0;" parent="1" vertex="1">
          <mxGeometry x="745" y="-205" width="220" height="10" as="geometry" />
        </mxCell>
        <mxCell id="pcuB9orH_UUmlSS86W1v-65" value="regla_automatizacion VARCHAR" style="text;html=1;align=left;verticalAlign=middle;whiteSpace=wrap;rounded=0;" parent="1" vertex="1">
          <mxGeometry x="745" y="-175" width="200" height="10" as="geometry" />
        </mxCell>
        <mxCell id="pcuB9orH_UUmlSS86W1v-66" value="condicion_automatizacion VARCHAR" style="text;html=1;align=left;verticalAlign=middle;whiteSpace=wrap;rounded=0;" parent="1" vertex="1">
          <mxGeometry x="745" y="-145" width="210" height="10" as="geometry" />
        </mxCell>
        <mxCell id="pcuB9orH_UUmlSS86W1v-67" value="accion VARCHAR" style="text;html=1;align=left;verticalAlign=middle;whiteSpace=wrap;rounded=0;" parent="1" vertex="1">
          <mxGeometry x="745" y="-115" width="110" height="10" as="geometry" />
        </mxCell>
        <mxCell id="pcuB9orH_UUmlSS86W1v-68" value="estado BOOLEAN" style="text;html=1;align=left;verticalAlign=middle;whiteSpace=wrap;rounded=0;" parent="1" vertex="1">
          <mxGeometry x="745" y="-85" width="180" height="10" as="geometry" />
        </mxCell>
        <mxCell id="pcuB9orH_UUmlSS86W1v-69" value="id_ubicacion_casa INT" style="text;html=1;align=left;verticalAlign=middle;whiteSpace=wrap;rounded=0;" parent="1" vertex="1">
          <mxGeometry x="745" y="-235" width="170" height="10" as="geometry" />
        </mxCell>
        <mxCell id="pcuB9orH_UUmlSS86W1v-70" value="automatizaciones" style="text;html=1;align=center;verticalAlign=middle;whiteSpace=wrap;rounded=0;fontSize=15;" parent="1" vertex="1">
          <mxGeometry x="775" y="-295" width="120" height="10" as="geometry" />
        </mxCell>
        <mxCell id="pcuB9orH_UUmlSS86W1v-71" value="PK" style="text;html=1;align=left;verticalAlign=middle;whiteSpace=wrap;rounded=0;" parent="1" vertex="1">
          <mxGeometry x="715" y="-265" width="20" height="10" as="geometry" />
        </mxCell>
        <mxCell id="pcuB9orH_UUmlSS86W1v-72" value="FK" style="text;html=1;align=left;verticalAlign=middle;whiteSpace=wrap;rounded=0;" parent="1" vertex="1">
          <mxGeometry x="715" y="-235" width="20" height="10" as="geometry" />
        </mxCell>
        <mxCell id="pcuB9orH_UUmlSS86W1v-73" value="nombre_automatizacion VARCHAR" style="text;html=1;align=left;verticalAlign=middle;whiteSpace=wrap;rounded=0;" parent="1" vertex="1">
          <mxGeometry x="745" y="-55" width="200" height="10" as="geometry" />
        </mxCell>
        <mxCell id="pcuB9orH_UUmlSS86W1v-74" value="" style="rounded=0;whiteSpace=wrap;html=1;" parent="1" vertex="1">
          <mxGeometry x="525" y="60" width="210" height="30" as="geometry" />
        </mxCell>
        <mxCell id="pcuB9orH_UUmlSS86W1v-75" value="" style="rounded=0;whiteSpace=wrap;html=1;" parent="1" vertex="1">
          <mxGeometry x="525" y="90" width="40" height="90" as="geometry" />
        </mxCell>
        <mxCell id="pcuB9orH_UUmlSS86W1v-76" value="" style="rounded=0;whiteSpace=wrap;html=1;" parent="1" vertex="1">
          <mxGeometry x="565" y="90" width="170" height="90" as="geometry" />
        </mxCell>
        <mxCell id="pcuB9orH_UUmlSS86W1v-77" value="id_ubicacion_casa INT" style="text;html=1;align=left;verticalAlign=middle;whiteSpace=wrap;rounded=0;" parent="1" vertex="1">
          <mxGeometry x="565" y="100" width="170" height="10" as="geometry" />
        </mxCell>
        <mxCell id="pcuB9orH_UUmlSS86W1v-78" value="id_domicilio INT" style="text;html=1;align=left;verticalAlign=middle;whiteSpace=wrap;rounded=0;" parent="1" vertex="1">
          <mxGeometry x="565" y="130" width="120" height="10" as="geometry" />
        </mxCell>
        <mxCell id="pcuB9orH_UUmlSS86W1v-79" value="nombre_ubicacion VARCHAR" style="text;html=1;align=left;verticalAlign=middle;whiteSpace=wrap;rounded=0;" parent="1" vertex="1">
          <mxGeometry x="565" y="155" width="170" height="10" as="geometry" />
        </mxCell>
        <mxCell id="pcuB9orH_UUmlSS86W1v-80" value="ubicaciones_casa" style="text;html=1;align=center;verticalAlign=middle;whiteSpace=wrap;rounded=0;fontSize=15;" parent="1" vertex="1">
          <mxGeometry x="555" y="70" width="150" height="10" as="geometry" />
        </mxCell>
        <mxCell id="pcuB9orH_UUmlSS86W1v-81" value="PK" style="text;html=1;align=left;verticalAlign=middle;whiteSpace=wrap;rounded=0;" parent="1" vertex="1">
          <mxGeometry x="535" y="100" width="20" height="10" as="geometry" />
        </mxCell>
        <mxCell id="pcuB9orH_UUmlSS86W1v-82" value="FK" style="text;html=1;align=left;verticalAlign=middle;whiteSpace=wrap;rounded=0;" parent="1" vertex="1">
          <mxGeometry x="535" y="130" width="20" height="10" as="geometry" />
        </mxCell>
        <mxCell id="pcuB9orH_UUmlSS86W1v-83" value="" style="edgeStyle=entityRelationEdgeStyle;fontSize=12;html=1;endArrow=ERoneToMany;startArrow=ERmandOne;rounded=0;entryX=1;entryY=0.75;entryDx=0;entryDy=0;" parent="1" source="pcuB9orH_UUmlSS86W1v-24" target="pcuB9orH_UUmlSS86W1v-76" edge="1">
          <mxGeometry width="100" height="100" relative="1" as="geometry">
            <mxPoint x="800" y="240" as="sourcePoint" />
            <mxPoint x="610" y="210" as="targetPoint" />
          </mxGeometry>
        </mxCell>
        <mxCell id="pcuB9orH_UUmlSS86W1v-84" value="" style="edgeStyle=entityRelationEdgeStyle;fontSize=12;html=1;endArrow=ERoneToMany;startArrow=ERmandOne;rounded=0;exitX=1;exitY=0.5;exitDx=0;exitDy=0;entryX=0;entryY=0.25;entryDx=0;entryDy=0;" parent="1" source="pcuB9orH_UUmlSS86W1v-3" target="pcuB9orH_UUmlSS86W1v-16" edge="1">
          <mxGeometry width="100" height="100" relative="1" as="geometry">
            <mxPoint x="440" y="410" as="sourcePoint" />
            <mxPoint x="540" y="310" as="targetPoint" />
          </mxGeometry>
        </mxCell>
        <mxCell id="pcuB9orH_UUmlSS86W1v-85" value="" style="edgeStyle=entityRelationEdgeStyle;fontSize=12;html=1;endArrow=ERoneToMany;startArrow=ERmandOne;rounded=0;entryX=1;entryY=0;entryDx=0;entryDy=0;" parent="1" source="pcuB9orH_UUmlSS86W1v-25" target="pcuB9orH_UUmlSS86W1v-18" edge="1">
          <mxGeometry width="100" height="100" relative="1" as="geometry">
            <mxPoint x="680" y="350" as="sourcePoint" />
            <mxPoint x="680" y="390" as="targetPoint" />
          </mxGeometry>
        </mxCell>
        <mxCell id="pcuB9orH_UUmlSS86W1v-86" value="" style="edgeStyle=entityRelationEdgeStyle;fontSize=12;html=1;endArrow=ERoneToMany;startArrow=ERmandOne;rounded=0;entryX=1;entryY=0.5;entryDx=0;entryDy=0;exitX=0.019;exitY=0.169;exitDx=0;exitDy=0;exitPerimeter=0;" parent="1" source="pcuB9orH_UUmlSS86W1v-75" target="pcuB9orH_UUmlSS86W1v-38" edge="1">
          <mxGeometry width="100" height="100" relative="1" as="geometry">
            <mxPoint x="350" as="sourcePoint" />
            <mxPoint x="450" y="100" as="targetPoint" />
          </mxGeometry>
        </mxCell>
        <mxCell id="pcuB9orH_UUmlSS86W1v-87" value="" style="edgeStyle=entityRelationEdgeStyle;fontSize=12;html=1;endArrow=ERoneToMany;startArrow=ERmandOne;rounded=0;exitX=0;exitY=0.5;exitDx=0;exitDy=0;" parent="1" source="pcuB9orH_UUmlSS86W1v-61" target="pcuB9orH_UUmlSS86W1v-53" edge="1">
          <mxGeometry width="100" height="100" relative="1" as="geometry">
            <mxPoint x="520" y="30" as="sourcePoint" />
            <mxPoint x="620" y="-70" as="targetPoint" />
          </mxGeometry>
        </mxCell>
        <mxCell id="pcuB9orH_UUmlSS86W1v-88" value="" style="edgeStyle=entityRelationEdgeStyle;fontSize=12;html=1;endArrow=ERoneToMany;startArrow=ERmandOne;rounded=0;exitX=1;exitY=0.25;exitDx=0;exitDy=0;entryX=0;entryY=0.25;entryDx=0;entryDy=0;" parent="1" source="pcuB9orH_UUmlSS86W1v-38" target="pcuB9orH_UUmlSS86W1v-52" edge="1">
          <mxGeometry width="100" height="100" relative="1" as="geometry">
            <mxPoint x="360" y="-290" as="sourcePoint" />
            <mxPoint x="460" y="-245" as="targetPoint" />
          </mxGeometry>
        </mxCell>
        <mxCell id="pcuB9orH_UUmlSS86W1v-89" value="" style="edgeStyle=entityRelationEdgeStyle;fontSize=12;html=1;endArrow=ERoneToMany;startArrow=ERmandOne;rounded=0;exitX=1;exitY=1;exitDx=0;exitDy=0;" parent="1" source="pcuB9orH_UUmlSS86W1v-77" target="pcuB9orH_UUmlSS86W1v-60" edge="1">
          <mxGeometry width="100" height="100" relative="1" as="geometry">
            <mxPoint x="770" y="99" as="sourcePoint" />
            <mxPoint x="865" y="40" as="targetPoint" />
          </mxGeometry>
        </mxCell>
      </root>
    </mxGraphModel>
  </diagram>
</mxfile>
